HIERARCHY
ROOT SpineBase
{
  OFFSET 0.000000 0.000000 0.000000
  CHANNELS 6 Xposition Yposition Zposition Zrotation Xrotation Yrotation
  JOINT SpineMid
  {
    OFFSET 0.000000 31.649919 0.000000
    CHANNELS 3 Zrotation Xrotation Yrotation
    JOINT SpineShoulder
    {
      OFFSET 0.181158 23.453839 -0.809687
      CHANNELS 3 Zrotation Xrotation Yrotation
      JOINT Neck
      {
        OFFSET 0.130661 7.743627 -0.608590
        CHANNELS 3 Zrotation Xrotation Yrotation
        JOINT Head
        {
          OFFSET -5.171480 14.134972 -2.436547
          CHANNELS 3 Zrotation Xrotation Yrotation
          End Site
          {
            OFFSET 0 0 0
          }
        }
      }
      JOINT ShoulderLeft
      {
        OFFSET -17.275994 -5.150569 6.294731
        CHANNELS 3 Zrotation Xrotation Yrotation
        JOINT ElbowLeft
        {
          OFFSET -1.476764 -21.124456 1.563438
          CHANNELS 3 Zrotation Xrotation Yrotation
          JOINT WristLeft
          {
            OFFSET 16.007994 -6.617556 -22.670492
            CHANNELS 3 Zrotation Xrotation Yrotation
            JOINT HandLeft
            {
              OFFSET 3.013575 -6.147801 -3.166509
              CHANNELS 3 Zrotation Xrotation Yrotation
              JOINT HandTipLeft
              {
                OFFSET 1.668635 -3.516255 -1.377200
                CHANNELS 3 Zrotation Xrotation Yrotation
                End Site
                {
                  OFFSET 0 0 0
                }
              }
              JOINT ThumbLeft
              {
                OFFSET -2.753642 4.255676 -7.766088
                CHANNELS 3 Zrotation Xrotation Yrotation
                End Site
                {
                  OFFSET 0 0 0
                }
              }
            }
          }
        }
      }
      JOINT ShoulderRight
      {
        OFFSET 15.382114 -2.897550 -7.441491
        CHANNELS 3 Zrotation Xrotation Yrotation
        JOINT ElbowRight
        {
          OFFSET 8.728190 -22.740705 -2.101603
          CHANNELS 3 Zrotation Xrotation Yrotation
          JOINT WristRight
          {
            OFFSET -24.045857 -8.061374 -11.700871
            CHANNELS 3 Zrotation Xrotation Yrotation
            JOINT HandRight
            {
              OFFSET -7.615069 -0.997454 -1.006572
              CHANNELS 3 Zrotation Xrotation Yrotation
              JOINT HandTipRight
              {
                OFFSET -7.922285 -1.697069 -0.522914
                CHANNELS 3 Zrotation Xrotation Yrotation
                End Site
                {
                  OFFSET 0 0 0
                }
              }
              JOINT ThumbRight
              {
                OFFSET 1.582778 -2.103211 2.999395
                CHANNELS 3 Zrotation Xrotation Yrotation
                End Site
                {
                  OFFSET 0 0 0
                }
              }
            }
          }
        }
      }
    }
  }
  JOINT HipLeft
  {
    OFFSET -6.075841 0.022122 -1.494778
    CHANNELS 3 Zrotation Xrotation Yrotation
    JOINT KneeLeft
    {
      OFFSET -0.293202 -35.893198 4.647016
      CHANNELS 3 Zrotation Xrotation Yrotation
      JOINT AnkleLeft
      {
        OFFSET 2.631636 -35.229050 7.708707
        CHANNELS 3 Zrotation Xrotation Yrotation
        JOINT FootLeft
        {
          OFFSET -0.827194 -8.049712 -6.000880
          CHANNELS 3 Zrotation Xrotation Yrotation
          End Site
          {
            OFFSET 0 0 0
          }
        }
      }
    }
  }
  JOINT HipRight
  {
    OFFSET 7.520489 1.800681 -5.787299
    CHANNELS 3 Zrotation Xrotation Yrotation
    JOINT KneeRight
    {
      OFFSET 6.813336 -34.668777 -1.188582
      CHANNELS 3 Zrotation Xrotation Yrotation
      JOINT AnkleRight
      {
        OFFSET 1.924256 -38.225044 7.101054
        CHANNELS 3 Zrotation Xrotation Yrotation
        JOINT FootRight
        {
          OFFSET -2.092099 -8.235555 -4.727034
          CHANNELS 3 Zrotation Xrotation Yrotation
          End Site
          {
            OFFSET 0 0 0
          }
        }
      }
    }
  }
}
MOTION
Frames: 5
Frame Time: 0.033333
-60.748087 81.540754 303.884204 -0.089110 1.570522 23.280176 0.027314 0.162927 -23.297220 -0.145039 -0.001945 -0.035111 1.797526 -10.414974 -2.658763 0.000000 0.000000 0.000000 -78.774663 18.210770 5.138458 127.247565 36.637055 -28.353660 13.180031 18.052477 19.241846 -14.626899 16.443671 3.793363 0.000000 0.000000 0.000000 0.000000 0.000000 0.000000 75.923621 62.617789 -24.529302 -124.939762 18.397035 -15.006258 27.511479 -23.438389 -17.492050 -19.662093 1.993832 0.162832 0.000000 0.000000 0.000000 0.000000 0.000000 0.000000 0.188928 -0.820492 -23.225624 -0.041292 -2.757112 -0.095468 -0.073224 4.569149 -0.445684 0.000000 0.000000 0.000000 -3.425417 -3.484999 -23.936412 3.320990 1.574676 0.620266 -6.625105 24.673795 -1.783605 0.000000 0.000000 0.000000
-60.701755 81.576987 303.871522 -0.082745 1.621732 23.264404 -0.003916 0.142743 -23.282448 -0.121792 -0.025479 -0.033428 1.968242 -10.301603 -2.571465 0.000000 0.000000 0.000000 -78.197313 18.229112 5.090088 126.370566 36.012626 -28.299910 9.507224 21.287957 19.810346 -12.963911 12.852775 3.635814 0.000000 0.000000 0.000000 0.000000 0.000000 0.000000 76.669066 62.740701 -25.093838 -125.363445 17.371695 -14.637304 27.761049 -21.229432 -21.598236 -20.605192 -1.109979 3.795760 0.000000 0.000000 0.000000 0.000000 0.000000 0.000000 0.053509 -0.840396 -23.226443 0.070212 -2.751092 -0.081468 -0.039122 4.415345 -0.454902 0.000000 0.000000 0.000000 -3.524572 -3.531765 -23.930573 3.412936 1.675563 0.627288 -8.010132 29.311662 -1.651655 0.000000 0.000000 0.000000
-60.677975 81.586196 303.880438 -0.107338 1.620823 23.198916 -0.012768 0.126626 -23.217373 -0.101240 -0.043136 -0.032205 2.195848 -10.031652 -2.431299 0.000000 0.000000 0.000000 -77.747166 18.218939 5.065368 125.747826 35.491586 -28.364733 8.969362 23.945414 19.685948 -13.848928 12.664865 3.353030 0.000000 0.000000 0.000000 0.000000 0.000000 0.000000 76.113427 62.662860 -24.707911 -125.413481 16.132157 -14.006965 26.997477 -18.554825 -25.188838 -20.626604 -4.609560 7.335753 0.000000 0.000000 0.000000 0.000000 0.000000 0.000000 0.002812 -0.844647 -23.170728 0.125331 -2.750547 -0.077787 -0.026654 4.615813 -0.465572 0.000000 0.000000 0.000000 -3.500024 -3.503376 -23.856046 3.459049 1.693450 0.626470 -8.693529 31.131616 -1.498303 0.000000 0.000000 0.000000
-60.639128 81.590259 303.857497 -0.115562 1.620777 23.040930 -0.028346 0.097786 -23.059452 -0.090423 -0.061909 -0.031077 2.539365 -9.690023 -2.241176 0.000000 0.000000 0.000000 -77.242286 18.272864 5.091851 125.113718 34.879256 -28.520850 6.186040 26.536545 20.438780 -10.011553 12.267052 3.192935 0.000000 0.000000 0.000000 0.000000 0.000000 0.000000 76.541764 62.925829 -25.137115 -125.509800 16.316395 -14.118168 27.619787 -18.242181 -26.467776 -22.778103 -5.683079 8.980016 0.000000 0.000000 0.000000 0.000000 0.000000 0.000000 -0.053927 -0.861157 -23.020783 0.193097 -2.743237 -0.069984 0.280869 3.523814 -0.601330 0.000000 0.000000 0.000000 -3.515973 -3.464082 -23.689521 3.529567 1.700161 0.622394 -8.466931 30.384393 -1.568655 0.000000 0.000000 0.000000
-60.661097 81.589015 303.959653 -0.181571 1.564944 23.158609 -0.021998 0.084238 -23.177472 -0.084530 -0.066775 -0.032256 3.252760 -9.100185 -1.888587 0.000000 0.000000 0.000000 -76.795236 18.097722 4.984551 124.857400 34.357429 -29.059929 9.039547 28.906901 19.280169 -13.283511 11.864481 2.919477 0.000000 0.000000 0.000000 0.000000 0.000000 0.000000 76.608814 63.128725 -25.275449 -125.379345 16.350341 -14.249030 26.679180 -18.046324 -25.684237 -22.850436 -4.703624 7.846678 0.000000 0.000000 0.000000 0.000000 0.000000 0.000000 0.072605 -0.708848 -23.138397 0.245285 -2.851364 -0.054173 0.404944 1.067122 -0.486082 0.000000 0.000000 0.000000 -3.349263 -3.318876 -23.770764 3.523905 1.585436 0.608921 -7.606274 25.679982 -1.410261 0.000000 0.000000 0.000000
